<svg width="573" height="220" viewBox="0 0 573 220" fill="none" xmlns="http://www.w3.org/2000/svg">
<rect y="-6.10352e-05" width="573" height="220" rx="24" fill="#FFBF0F"/>
<path d="M270 -3.81596e-07C270 3.15172 270.621 6.27259 271.827 9.1844C273.033 12.0962 274.801 14.742 277.029 16.9706C279.258 19.1992 281.904 20.967 284.816 22.1731C287.727 23.3792 290.848 24 294 24C297.152 24 300.273 23.3792 303.184 22.1731C306.096 20.967 308.742 19.1992 310.971 16.9706C313.199 14.742 314.967 12.0962 316.173 9.1844C317.379 6.27259 318 3.15173 318 1.90735e-06L270 -3.81596e-07Z" fill="white"/>
<path d="M318 220C318 216.848 317.379 213.727 316.173 210.815C314.967 207.904 313.199 205.258 310.971 203.029C308.742 200.801 306.096 199.033 303.184 197.827C300.273 196.621 297.152 196 294 196C290.848 196 287.727 196.621 284.816 197.827C281.904 199.033 279.258 200.801 277.029 203.029C274.801 205.258 273.033 207.904 271.827 210.815C270.621 213.727 270 216.848 270 220L318 220Z" fill="white"/>
<line x1="331" y1="32" x2="331" y2="188" stroke="white" stroke-width="2" stroke-dasharray="5 5"/>
</svg>
